<?xml version="1.0" encoding="utf-8"?>
<!-- Generator: Adobe Illustrator 25.2.0, SVG Export Plug-In . SVG Version: 6.00 Build 0)  -->
<svg version="1.1" id="Layer_1" xmlns="http://www.w3.org/2000/svg" xmlns:xlink="http://www.w3.org/1999/xlink" x="0px" y="0px"
	 viewBox="0 0 17 15" style="enable-background:new 0 0 17 15;" xml:space="preserve">
<style type="text/css">
	.st0 {
	    fill-rule: evenodd;
	    clip-rule: evenodd;
	    fill: #000000;
	}

</style>
<path id="Fill-45" class="st0" d="M13.9,7.3c0.1,0.1,0.2,0,0.2-0.1c0.4-0.4,0.8-0.9,1.1-1.3c0.4-0.5,0.5-1.1,0.6-1.7
	c0-0.4-0.1-0.8-0.4-1.2c-0.3-0.3-0.6-0.6-1-0.5c-0.1,0-0.1,0-0.1,0.1l0.1,0.1c0.1,0,0.2,0.1,0.2,0.1c0.6,0.3,0.8,0.8,0.9,1.4
	c0,0.5-0.2,1-0.5,1.4c-0.3,0.4-0.6,0.8-0.9,1.2C14,7,13.9,7.1,13.9,7.3 M16.5,4.4c0,0.8-0.3,1.5-0.8,2.2c-0.6,0.8-1.3,1.6-2.1,2.3
	c-1.2,1.1-2.3,2.2-3.5,3.2c-0.8,0.7-1.6,1.4-2.1,2.3c-0.1,0.3-0.3,0.3-0.5,0.1c-0.9-1.4-2.1-2.6-3-3.9c-0.2-0.3-0.4-0.5-0.7-0.8
	C3.2,9.1,2.5,8.2,1.8,7.4C1.1,6.4,0.6,5.3,0.5,4C0.4,2.8,0.8,1.8,1.5,0.9c0.2-0.2,0.4-0.4,0.6-0.4C3,0.2,3.9,0.2,4.6,0.7
	c1,0.6,1.8,1.4,2.3,2.5C7.2,3.8,7.4,4.4,7.7,5c0.1,0.2,0.2,0.4,0.2,0.7c0,0.1,0.2,0.1,0.3,0c0.1-0.2,0.2-0.4,0.3-0.5
	C8.7,4.8,8.9,4.4,9.1,4c0.9-1.4,2.3-2.2,4-2.4c0.5-0.1,0.9,0,1.4,0.1c1,0.2,1.6,0.8,1.9,1.8C16.5,3.8,16.5,4.1,16.5,4.4"/>
</svg>
